<svg xmlns="http://www.w3.org/2000/svg" viewBox="0 0 216.42 205.25"><defs><style>.a1490ee5-0133-433b-8503-ce5488b08a67{fill:#2aa5b0;stroke:#2aa5b0;stroke-width:0.25px;}.a1490ee5-0133-433b-8503-ce5488b08a67,.b06d4eb8-ce14-4415-8bb9-e41bf2c19bee,.e9135c47-2ae6-4ad8-89b5-c641adbaa031{stroke-miterlimit:10;}.e9135c47-2ae6-4ad8-89b5-c641adbaa031,.fb666bbc-4ebd-46b6-8952-e72964379d23{fill:#b35815;}.e9135c47-2ae6-4ad8-89b5-c641adbaa031{stroke:#b35815;stroke-width:2px;}.b06d4eb8-ce14-4415-8bb9-e41bf2c19bee{fill:#fff;stroke:#fff;}</style></defs><g id="b993e15b-f20c-4483-bc61-b555f3e2e80c" data-name="Layer 2"><g id="f20bd636-b4ca-4181-9459-54bad6bb777c" data-name="Layer 2"><g id="fe11eb95-c9a9-4f4e-bdf3-56d2b847d77a" data-name="Layer 1"><path class="a1490ee5-0133-433b-8503-ce5488b08a67" d="M110.8,11.86,216.2,202.62H124.78L112,178.5H67.9L29,178.37l-6.57-.14-8.68,16.11q-3.81,7.28-5.34,9a4.82,4.82,0,0,1-3.78,1.76q-4.51,0-4.51-4c0-1.14.85-3.27,2.57-6.39s7.71-13.38,18-30.78L100.51,29.66Zm-41,86.61-23,38.75L28.33,169.14l39.32.53,39.45-.53Z"/><path class="e9135c47-2ae6-4ad8-89b5-c641adbaa031" d="M202.37,97.09c-.45,9.92-1.85,19.67-5.18,28.92-2.18,6.08-4.69,12-6.85,18.13A34.67,34.67,0,0,0,188.56,162a47.52,47.52,0,0,0,2.1,7.12c.36,1,0,.91-.65.74-8.49-2.16-16.89-4.51-24.43-9.58A108.41,108.41,0,0,1,147,144.05c-4.06-4.34-7.59-9.15-11.35-13.76a11.39,11.39,0,0,1-.77-1.42l9,3.94c-1.94-2.81-3.44-5.79-5.35-8.52a81,81,0,0,1-10.63-20.76,120.79,120.79,0,0,1-4.49-18.62c-.07-.46-.21-1,.23-1.25s.79.25,1.11.54c2.37,2.23,4.82,4.35,7.64,6.54-.86-3.34-1.59-6.39-2.43-9.4-1.67-6-3.5-12-5.08-18-1.64-6.29-1.55-12.72-1.21-19.13a6.88,6.88,0,0,0,0-2.52c-.14-.43-.13-1,.33-1.17s.65.33.91.64a87.22,87.22,0,0,0,6.86,7.39l.58-.08c-.28-3.11-.62-6.21-.84-9.32a49.31,49.31,0,0,0-6.17-19.88A75.33,75.33,0,0,0,116.8,7.35c-1.62-2-3.18-4-5-6.28a64,64,0,0,1,8.82.17,56.51,56.51,0,0,1,22.63,7.59c5.83,3.36,11,7.79,16.36,11.82a22.41,22.41,0,0,0,4.42,2.77c.29-.94-.54-1.66-.32-2.58,1.27.34,1.83,1.54,2.49,2.45A112.64,112.64,0,0,1,180.1,48.88a100.43,100.43,0,0,0,5.1,11.2c1-4.53,1-9,1.68-13.86a49.66,49.66,0,0,1,4.81,10.69c1.83,5.73,2.42,11.69,3.09,17.62.77,6.88,1.4,13.78,2,20.67a75.85,75.85,0,0,0,1.1,8.84c1.66-2.68,2.36-5.51,4.06-7.72C202.47,96.37,202.38,96.78,202.37,97.09Z"/><path class="fb666bbc-4ebd-46b6-8952-e72964379d23" d="M184.54,156.5l4.72,9.68c1.17,2.4,2.34,4.81,3.64,7.07,5.1,8.85,12.16,15.43,16.5,25"/><path class="fb666bbc-4ebd-46b6-8952-e72964379d23" d="M179.36,159.53c3.74,7.67,7.16,15.56,12.12,22.54,4.47,6.29,9.5,12.17,12.74,19.24,1.31,2.86,5.67,3.79,8.21,2.15,2.95-1.9,3.56-5.15,2.15-8.21-3.24-7.07-8.27-12.95-12.74-19.24-5-7-8.38-14.87-12.12-22.54-1.38-2.83-5.63-3.82-8.21-2.15a6.15,6.15,0,0,0-2.15,8.21Z"/><path class="b06d4eb8-ce14-4415-8bb9-e41bf2c19bee" d="M165.87,30a26.59,26.59,0,0,1-2.35,11.22c-2.17,5.31-4.35,10.56-5.19,16.16-.33,2.16.59,4.07,1.17,6a131.76,131.76,0,0,1,3.65,16.66c.86,5.27,1.67,10.55,2.12,15.85.44,5.1.38,10.23.55,15.34a8.94,8.94,0,0,0,.25,1.1c1.11-1.86,2.08-3.34,2.9-4.88,4.09-7.71,10.38-14.25,15.3-21.52a95.5,95.5,0,0,0,6.93-11.84,6.07,6.07,0,0,1,1.12-1.61,52.41,52.41,0,0,1-4.11,10.15,106.89,106.89,0,0,1-9.57,14.38c-2.38,3.11-4.85,6.18-6.93,9.44a76,76,0,0,0-4.73,9c-.9,1.95.11,3.94.53,5.84A98.39,98.39,0,0,0,182,155.4c2.67,4,5.83,7.71,8.89,11.72a18.2,18.2,0,0,1-7.37-4.24c-7-6-10.75-13.76-14.2-21.6-1.07-2.42-1.86-4.94-3.07-7.29-.78-1.52-2.48-2.53-3.91-3.62-5.17-3.94-11-7-16.81-10.26a53.16,53.16,0,0,1-13.63-10.59c-.21-.23-.56-.43-.25-.88C133.2,109,134,110.2,135,111a81.69,81.69,0,0,0,16.25,9.79A61,61,0,0,1,164,129c.76-1.12.07-2.11-.17-2.93a85.1,85.1,0,0,1-2.94-19.82c-.34-6.7-1.16-13.35-1.91-20a4.54,4.54,0,0,0-1.51-2.41c-4-4.48-9.23-7.81-14.63-11a45,45,0,0,1-10.29-8.27c-.22-.23-.56-.42-.29-1,.65-.14,1,.39,1.41.73,3.86,3.51,8.48,6.17,13.09,8.84a44.39,44.39,0,0,1,9.65,7.81c.44.45.66,1.27,1.59,1,1.14-.38.25-1.09.15-1.6-1.46-7.66-3-15.31-5-22.88-1.06-4.1-2.35-8.15-3.47-12.24a100.28,100.28,0,0,0-7.13-19.6c-4.08-7.93-8.87-15.52-16.15-21.67a12.32,12.32,0,0,1-1.86-2,19.54,19.54,0,0,1,4.86,3c7.25,5.47,11.79,12.47,15.36,20.12,2.68,5.72,5.31,11.45,7.84,17.22,1.73,3.93,2.89,8.06,4.51,12.11C159.43,46.17,163.91,38.46,165.87,30Z"/></g></g></g></svg>